<svg xmlns="http://www.w3.org/2000/svg" height="64" width="64" viewBox="0 0 64 64"><title>walk</title><g fill="#d4f7e8" class="nc-icon-wrapper"><circle cx="33.5" cy="7.5" r="6.5" fill="#d4f7e8"></circle><path d="M41.007,45.77l-7.568-6.8-2.251,7.592L36,49.336V59a3,3,0,0,0,6,0V48A3,3,0,0,0,41.007,45.77Z" data-color="color-2"></path><path d="M19.046,27.872l3.055-.278,1-6.28a7.614,7.614,0,0,1,.363-1.394l-6.828,1.612a3,3,0,0,0-2.171,1.856l-3.256,8.465a3.09,3.09,0,1,0,5.816,2.087Z" data-color="color-2"></path><path d="M53.91,26.272a3,3,0,0,0-3.638-2.183L43.349,25.82l-9.392-7.6a5.492,5.492,0,0,0-8.881,3.4l-6,37.686A5.513,5.513,0,0,0,19,60a3,3,0,0,0,5.934.622L34.785,27.4l6.442,3.923a4,4,0,0,0,3.038.456l7.462-1.866A3,3,0,0,0,53.91,26.272Z" fill="#d4f7e8"></path></g></svg>